<svg xmlns="http://www.w3.org/2000/svg" width="1280" height="640" viewBox="0 0 1280 640" role="img" aria-labelledby="title description">
  <title id="title">OPENCNTX social preview</title>
  <desc id="description">Simple OPENCNTX text branding. OPEN is purple and CNTX is near-black. Small context. Clear evidence. Any model.</desc>
  <rect x="0" y="0" width="1280" height="640" fill="#F7F5FB"/>
  <g id="word-open" fill="#6D28D9" aria-label="OPEN">
    <ellipse cx="160" cy="300" rx="70" ry="90"/><ellipse cx="160" cy="300" rx="42" ry="58" fill="#F7F5FB"/>
    <rect x="260" y="210" width="28" height="180"/><rect x="288" y="210" width="84" height="28"/><rect x="288" y="286" width="84" height="28"/><rect x="344" y="238" width="28" height="48"/>
    <rect x="410" y="210" width="28" height="180"/><rect x="438" y="210" width="88" height="28"/><rect x="438" y="286" width="76" height="28"/><rect x="438" y="362" width="88" height="28"/>
    <rect x="558" y="210" width="28" height="180"/><rect x="678" y="210" width="28" height="180"/><polygon points="586,210 612,210 678,356 678,390 652,390 586,244"/>
  </g>
  <g id="word-cntx" fill="#0B0B0F" aria-label="CNTX">
    <ellipse cx="800" cy="300" rx="72" ry="90"/><ellipse cx="800" cy="300" rx="44" ry="58" fill="#F7F5FB"/><rect x="800" y="255" width="82" height="90" fill="#F7F5FB"/>
    <rect x="900" y="210" width="28" height="180"/><rect x="1010" y="210" width="28" height="180"/><polygon points="928,210 954,210 1010,356 1010,390 984,390 928,244"/>
    <rect x="1058" y="210" width="94" height="28"/><rect x="1091" y="238" width="28" height="152"/>
    <polygon points="1164,210 1196,210 1260,356 1260,390 1228,390 1164,244"/><polygon points="1228,210 1260,210 1196,390 1164,390 1164,356"/>
  </g>
  <rect x="52" y="454" width="1176" height="6" fill="#7C3AED"/>
  <g id="tagline" fill="#0B0B0F" aria-label="SMALL CONTEXT. CLEAR EVIDENCE. ANY MODEL.">
    <rect x="56" y="490" width="4" height="4"/>
    <rect x="60" y="490" width="4" height="4"/>
    <rect x="64" y="490" width="4" height="4"/>
    <rect x="68" y="490" width="4" height="4"/>
    <rect x="52" y="494" width="4" height="4"/>
    <rect x="52" y="498" width="4" height="4"/>
    <rect x="56" y="502" width="4" height="4"/>
    <rect x="60" y="502" width="4" height="4"/>
    <rect x="64" y="502" width="4" height="4"/>
    <rect x="68" y="506" width="4" height="4"/>
    <rect x="68" y="510" width="4" height="4"/>
    <rect x="52" y="514" width="4" height="4"/>
    <rect x="56" y="514" width="4" height="4"/>
    <rect x="60" y="514" width="4" height="4"/>
    <rect x="64" y="514" width="4" height="4"/>
    <rect x="80" y="490" width="4" height="4"/>
    <rect x="96" y="490" width="4" height="4"/>
    <rect x="80" y="494" width="4" height="4"/>
    <rect x="84" y="494" width="4" height="4"/>
    <rect x="92" y="494" width="4" height="4"/>
    <rect x="96" y="494" width="4" height="4"/>
    <rect x="80" y="498" width="4" height="4"/>
    <rect x="88" y="498" width="4" height="4"/>
    <rect x="96" y="498" width="4" height="4"/>
    <rect x="80" y="502" width="4" height="4"/>
    <rect x="88" y="502" width="4" height="4"/>
    <rect x="96" y="502" width="4" height="4"/>
    <rect x="80" y="506" width="4" height="4"/>
    <rect x="96" y="506" width="4" height="4"/>
    <rect x="80" y="510" width="4" height="4"/>
    <rect x="96" y="510" width="4" height="4"/>
    <rect x="80" y="514" width="4" height="4"/>
    <rect x="96" y="514" width="4" height="4"/>
    <rect x="112" y="490" width="4" height="4"/>
    <rect x="116" y="490" width="4" height="4"/>
    <rect x="120" y="490" width="4" height="4"/>
    <rect x="108" y="494" width="4" height="4"/>
    <rect x="124" y="494" width="4" height="4"/>
    <rect x="108" y="498" width="4" height="4"/>
    <rect x="124" y="498" width="4" height="4"/>
    <rect x="108" y="502" width="4" height="4"/>
    <rect x="112" y="502" width="4" height="4"/>
    <rect x="116" y="502" width="4" height="4"/>
    <rect x="120" y="502" width="4" height="4"/>
    <rect x="124" y="502" width="4" height="4"/>
    <rect x="108" y="506" width="4" height="4"/>
    <rect x="124" y="506" width="4" height="4"/>
    <rect x="108" y="510" width="4" height="4"/>
    <rect x="124" y="510" width="4" height="4"/>
    <rect x="108" y="514" width="4" height="4"/>
    <rect x="124" y="514" width="4" height="4"/>
    <rect x="136" y="490" width="4" height="4"/>
    <rect x="136" y="494" width="4" height="4"/>
    <rect x="136" y="498" width="4" height="4"/>
    <rect x="136" y="502" width="4" height="4"/>
    <rect x="136" y="506" width="4" height="4"/>
    <rect x="136" y="510" width="4" height="4"/>
    <rect x="136" y="514" width="4" height="4"/>
    <rect x="140" y="514" width="4" height="4"/>
    <rect x="144" y="514" width="4" height="4"/>
    <rect x="148" y="514" width="4" height="4"/>
    <rect x="152" y="514" width="4" height="4"/>
    <rect x="164" y="490" width="4" height="4"/>
    <rect x="164" y="494" width="4" height="4"/>
    <rect x="164" y="498" width="4" height="4"/>
    <rect x="164" y="502" width="4" height="4"/>
    <rect x="164" y="506" width="4" height="4"/>
    <rect x="164" y="510" width="4" height="4"/>
    <rect x="164" y="514" width="4" height="4"/>
    <rect x="168" y="514" width="4" height="4"/>
    <rect x="172" y="514" width="4" height="4"/>
    <rect x="176" y="514" width="4" height="4"/>
    <rect x="180" y="514" width="4" height="4"/>
    <rect x="216" y="490" width="4" height="4"/>
    <rect x="220" y="490" width="4" height="4"/>
    <rect x="224" y="490" width="4" height="4"/>
    <rect x="228" y="490" width="4" height="4"/>
    <rect x="212" y="494" width="4" height="4"/>
    <rect x="212" y="498" width="4" height="4"/>
    <rect x="212" y="502" width="4" height="4"/>
    <rect x="212" y="506" width="4" height="4"/>
    <rect x="212" y="510" width="4" height="4"/>
    <rect x="216" y="514" width="4" height="4"/>
    <rect x="220" y="514" width="4" height="4"/>
    <rect x="224" y="514" width="4" height="4"/>
    <rect x="228" y="514" width="4" height="4"/>
    <rect x="244" y="490" width="4" height="4"/>
    <rect x="248" y="490" width="4" height="4"/>
    <rect x="252" y="490" width="4" height="4"/>
    <rect x="240" y="494" width="4" height="4"/>
    <rect x="256" y="494" width="4" height="4"/>
    <rect x="240" y="498" width="4" height="4"/>
    <rect x="256" y="498" width="4" height="4"/>
    <rect x="240" y="502" width="4" height="4"/>
    <rect x="256" y="502" width="4" height="4"/>
    <rect x="240" y="506" width="4" height="4"/>
    <rect x="256" y="506" width="4" height="4"/>
    <rect x="240" y="510" width="4" height="4"/>
    <rect x="256" y="510" width="4" height="4"/>
    <rect x="244" y="514" width="4" height="4"/>
    <rect x="248" y="514" width="4" height="4"/>
    <rect x="252" y="514" width="4" height="4"/>
    <rect x="268" y="490" width="4" height="4"/>
    <rect x="284" y="490" width="4" height="4"/>
    <rect x="268" y="494" width="4" height="4"/>
    <rect x="272" y="494" width="4" height="4"/>
    <rect x="284" y="494" width="4" height="4"/>
    <rect x="268" y="498" width="4" height="4"/>
    <rect x="276" y="498" width="4" height="4"/>
    <rect x="284" y="498" width="4" height="4"/>
    <rect x="268" y="502" width="4" height="4"/>
    <rect x="280" y="502" width="4" height="4"/>
    <rect x="284" y="502" width="4" height="4"/>
    <rect x="268" y="506" width="4" height="4"/>
    <rect x="284" y="506" width="4" height="4"/>
    <rect x="268" y="510" width="4" height="4"/>
    <rect x="284" y="510" width="4" height="4"/>
    <rect x="268" y="514" width="4" height="4"/>
    <rect x="284" y="514" width="4" height="4"/>
    <rect x="296" y="490" width="4" height="4"/>
    <rect x="300" y="490" width="4" height="4"/>
    <rect x="304" y="490" width="4" height="4"/>
    <rect x="308" y="490" width="4" height="4"/>
    <rect x="312" y="490" width="4" height="4"/>
    <rect x="304" y="494" width="4" height="4"/>
    <rect x="304" y="498" width="4" height="4"/>
    <rect x="304" y="502" width="4" height="4"/>
    <rect x="304" y="506" width="4" height="4"/>
    <rect x="304" y="510" width="4" height="4"/>
    <rect x="304" y="514" width="4" height="4"/>
    <rect x="324" y="490" width="4" height="4"/>
    <rect x="328" y="490" width="4" height="4"/>
    <rect x="332" y="490" width="4" height="4"/>
    <rect x="336" y="490" width="4" height="4"/>
    <rect x="340" y="490" width="4" height="4"/>
    <rect x="324" y="494" width="4" height="4"/>
    <rect x="324" y="498" width="4" height="4"/>
    <rect x="324" y="502" width="4" height="4"/>
    <rect x="328" y="502" width="4" height="4"/>
    <rect x="332" y="502" width="4" height="4"/>
    <rect x="336" y="502" width="4" height="4"/>
    <rect x="324" y="506" width="4" height="4"/>
    <rect x="324" y="510" width="4" height="4"/>
    <rect x="324" y="514" width="4" height="4"/>
    <rect x="328" y="514" width="4" height="4"/>
    <rect x="332" y="514" width="4" height="4"/>
    <rect x="336" y="514" width="4" height="4"/>
    <rect x="340" y="514" width="4" height="4"/>
    <rect x="352" y="490" width="4" height="4"/>
    <rect x="368" y="490" width="4" height="4"/>
    <rect x="352" y="494" width="4" height="4"/>
    <rect x="368" y="494" width="4" height="4"/>
    <rect x="356" y="498" width="4" height="4"/>
    <rect x="364" y="498" width="4" height="4"/>
    <rect x="360" y="502" width="4" height="4"/>
    <rect x="356" y="506" width="4" height="4"/>
    <rect x="364" y="506" width="4" height="4"/>
    <rect x="352" y="510" width="4" height="4"/>
    <rect x="368" y="510" width="4" height="4"/>
    <rect x="352" y="514" width="4" height="4"/>
    <rect x="368" y="514" width="4" height="4"/>
    <rect x="380" y="490" width="4" height="4"/>
    <rect x="384" y="490" width="4" height="4"/>
    <rect x="388" y="490" width="4" height="4"/>
    <rect x="392" y="490" width="4" height="4"/>
    <rect x="396" y="490" width="4" height="4"/>
    <rect x="388" y="494" width="4" height="4"/>
    <rect x="388" y="498" width="4" height="4"/>
    <rect x="388" y="502" width="4" height="4"/>
    <rect x="388" y="506" width="4" height="4"/>
    <rect x="388" y="510" width="4" height="4"/>
    <rect x="388" y="514" width="4" height="4"/>
    <rect x="416" y="510" width="4" height="4"/>
    <rect x="416" y="514" width="4" height="4"/>
    <rect x="460" y="490" width="4" height="4"/>
    <rect x="464" y="490" width="4" height="4"/>
    <rect x="468" y="490" width="4" height="4"/>
    <rect x="472" y="490" width="4" height="4"/>
    <rect x="456" y="494" width="4" height="4"/>
    <rect x="456" y="498" width="4" height="4"/>
    <rect x="456" y="502" width="4" height="4"/>
    <rect x="456" y="506" width="4" height="4"/>
    <rect x="456" y="510" width="4" height="4"/>
    <rect x="460" y="514" width="4" height="4"/>
    <rect x="464" y="514" width="4" height="4"/>
    <rect x="468" y="514" width="4" height="4"/>
    <rect x="472" y="514" width="4" height="4"/>
    <rect x="484" y="490" width="4" height="4"/>
    <rect x="484" y="494" width="4" height="4"/>
    <rect x="484" y="498" width="4" height="4"/>
    <rect x="484" y="502" width="4" height="4"/>
    <rect x="484" y="506" width="4" height="4"/>
    <rect x="484" y="510" width="4" height="4"/>
    <rect x="484" y="514" width="4" height="4"/>
    <rect x="488" y="514" width="4" height="4"/>
    <rect x="492" y="514" width="4" height="4"/>
    <rect x="496" y="514" width="4" height="4"/>
    <rect x="500" y="514" width="4" height="4"/>
    <rect x="512" y="490" width="4" height="4"/>
    <rect x="516" y="490" width="4" height="4"/>
    <rect x="520" y="490" width="4" height="4"/>
    <rect x="524" y="490" width="4" height="4"/>
    <rect x="528" y="490" width="4" height="4"/>
    <rect x="512" y="494" width="4" height="4"/>
    <rect x="512" y="498" width="4" height="4"/>
    <rect x="512" y="502" width="4" height="4"/>
    <rect x="516" y="502" width="4" height="4"/>
    <rect x="520" y="502" width="4" height="4"/>
    <rect x="524" y="502" width="4" height="4"/>
    <rect x="512" y="506" width="4" height="4"/>
    <rect x="512" y="510" width="4" height="4"/>
    <rect x="512" y="514" width="4" height="4"/>
    <rect x="516" y="514" width="4" height="4"/>
    <rect x="520" y="514" width="4" height="4"/>
    <rect x="524" y="514" width="4" height="4"/>
    <rect x="528" y="514" width="4" height="4"/>
    <rect x="544" y="490" width="4" height="4"/>
    <rect x="548" y="490" width="4" height="4"/>
    <rect x="552" y="490" width="4" height="4"/>
    <rect x="540" y="494" width="4" height="4"/>
    <rect x="556" y="494" width="4" height="4"/>
    <rect x="540" y="498" width="4" height="4"/>
    <rect x="556" y="498" width="4" height="4"/>
    <rect x="540" y="502" width="4" height="4"/>
    <rect x="544" y="502" width="4" height="4"/>
    <rect x="548" y="502" width="4" height="4"/>
    <rect x="552" y="502" width="4" height="4"/>
    <rect x="556" y="502" width="4" height="4"/>
    <rect x="540" y="506" width="4" height="4"/>
    <rect x="556" y="506" width="4" height="4"/>
    <rect x="540" y="510" width="4" height="4"/>
    <rect x="556" y="510" width="4" height="4"/>
    <rect x="540" y="514" width="4" height="4"/>
    <rect x="556" y="514" width="4" height="4"/>
    <rect x="568" y="490" width="4" height="4"/>
    <rect x="572" y="490" width="4" height="4"/>
    <rect x="576" y="490" width="4" height="4"/>
    <rect x="580" y="490" width="4" height="4"/>
    <rect x="568" y="494" width="4" height="4"/>
    <rect x="584" y="494" width="4" height="4"/>
    <rect x="568" y="498" width="4" height="4"/>
    <rect x="584" y="498" width="4" height="4"/>
    <rect x="568" y="502" width="4" height="4"/>
    <rect x="572" y="502" width="4" height="4"/>
    <rect x="576" y="502" width="4" height="4"/>
    <rect x="580" y="502" width="4" height="4"/>
    <rect x="568" y="506" width="4" height="4"/>
    <rect x="576" y="506" width="4" height="4"/>
    <rect x="568" y="510" width="4" height="4"/>
    <rect x="580" y="510" width="4" height="4"/>
    <rect x="568" y="514" width="4" height="4"/>
    <rect x="584" y="514" width="4" height="4"/>
    <rect x="616" y="490" width="4" height="4"/>
    <rect x="620" y="490" width="4" height="4"/>
    <rect x="624" y="490" width="4" height="4"/>
    <rect x="628" y="490" width="4" height="4"/>
    <rect x="632" y="490" width="4" height="4"/>
    <rect x="616" y="494" width="4" height="4"/>
    <rect x="616" y="498" width="4" height="4"/>
    <rect x="616" y="502" width="4" height="4"/>
    <rect x="620" y="502" width="4" height="4"/>
    <rect x="624" y="502" width="4" height="4"/>
    <rect x="628" y="502" width="4" height="4"/>
    <rect x="616" y="506" width="4" height="4"/>
    <rect x="616" y="510" width="4" height="4"/>
    <rect x="616" y="514" width="4" height="4"/>
    <rect x="620" y="514" width="4" height="4"/>
    <rect x="624" y="514" width="4" height="4"/>
    <rect x="628" y="514" width="4" height="4"/>
    <rect x="632" y="514" width="4" height="4"/>
    <rect x="644" y="490" width="4" height="4"/>
    <rect x="660" y="490" width="4" height="4"/>
    <rect x="644" y="494" width="4" height="4"/>
    <rect x="660" y="494" width="4" height="4"/>
    <rect x="644" y="498" width="4" height="4"/>
    <rect x="660" y="498" width="4" height="4"/>
    <rect x="644" y="502" width="4" height="4"/>
    <rect x="660" y="502" width="4" height="4"/>
    <rect x="644" y="506" width="4" height="4"/>
    <rect x="660" y="506" width="4" height="4"/>
    <rect x="648" y="510" width="4" height="4"/>
    <rect x="656" y="510" width="4" height="4"/>
    <rect x="652" y="514" width="4" height="4"/>
    <rect x="672" y="490" width="4" height="4"/>
    <rect x="676" y="490" width="4" height="4"/>
    <rect x="680" y="490" width="4" height="4"/>
    <rect x="684" y="490" width="4" height="4"/>
    <rect x="688" y="490" width="4" height="4"/>
    <rect x="680" y="494" width="4" height="4"/>
    <rect x="680" y="498" width="4" height="4"/>
    <rect x="680" y="502" width="4" height="4"/>
    <rect x="680" y="506" width="4" height="4"/>
    <rect x="680" y="510" width="4" height="4"/>
    <rect x="672" y="514" width="4" height="4"/>
    <rect x="676" y="514" width="4" height="4"/>
    <rect x="680" y="514" width="4" height="4"/>
    <rect x="684" y="514" width="4" height="4"/>
    <rect x="688" y="514" width="4" height="4"/>
    <rect x="700" y="490" width="4" height="4"/>
    <rect x="704" y="490" width="4" height="4"/>
    <rect x="708" y="490" width="4" height="4"/>
    <rect x="712" y="490" width="4" height="4"/>
    <rect x="700" y="494" width="4" height="4"/>
    <rect x="716" y="494" width="4" height="4"/>
    <rect x="700" y="498" width="4" height="4"/>
    <rect x="716" y="498" width="4" height="4"/>
    <rect x="700" y="502" width="4" height="4"/>
    <rect x="716" y="502" width="4" height="4"/>
    <rect x="700" y="506" width="4" height="4"/>
    <rect x="716" y="506" width="4" height="4"/>
    <rect x="700" y="510" width="4" height="4"/>
    <rect x="716" y="510" width="4" height="4"/>
    <rect x="700" y="514" width="4" height="4"/>
    <rect x="704" y="514" width="4" height="4"/>
    <rect x="708" y="514" width="4" height="4"/>
    <rect x="712" y="514" width="4" height="4"/>
    <rect x="728" y="490" width="4" height="4"/>
    <rect x="732" y="490" width="4" height="4"/>
    <rect x="736" y="490" width="4" height="4"/>
    <rect x="740" y="490" width="4" height="4"/>
    <rect x="744" y="490" width="4" height="4"/>
    <rect x="728" y="494" width="4" height="4"/>
    <rect x="728" y="498" width="4" height="4"/>
    <rect x="728" y="502" width="4" height="4"/>
    <rect x="732" y="502" width="4" height="4"/>
    <rect x="736" y="502" width="4" height="4"/>
    <rect x="740" y="502" width="4" height="4"/>
    <rect x="728" y="506" width="4" height="4"/>
    <rect x="728" y="510" width="4" height="4"/>
    <rect x="728" y="514" width="4" height="4"/>
    <rect x="732" y="514" width="4" height="4"/>
    <rect x="736" y="514" width="4" height="4"/>
    <rect x="740" y="514" width="4" height="4"/>
    <rect x="744" y="514" width="4" height="4"/>
    <rect x="756" y="490" width="4" height="4"/>
    <rect x="772" y="490" width="4" height="4"/>
    <rect x="756" y="494" width="4" height="4"/>
    <rect x="760" y="494" width="4" height="4"/>
    <rect x="772" y="494" width="4" height="4"/>
    <rect x="756" y="498" width="4" height="4"/>
    <rect x="764" y="498" width="4" height="4"/>
    <rect x="772" y="498" width="4" height="4"/>
    <rect x="756" y="502" width="4" height="4"/>
    <rect x="768" y="502" width="4" height="4"/>
    <rect x="772" y="502" width="4" height="4"/>
    <rect x="756" y="506" width="4" height="4"/>
    <rect x="772" y="506" width="4" height="4"/>
    <rect x="756" y="510" width="4" height="4"/>
    <rect x="772" y="510" width="4" height="4"/>
    <rect x="756" y="514" width="4" height="4"/>
    <rect x="772" y="514" width="4" height="4"/>
    <rect x="788" y="490" width="4" height="4"/>
    <rect x="792" y="490" width="4" height="4"/>
    <rect x="796" y="490" width="4" height="4"/>
    <rect x="800" y="490" width="4" height="4"/>
    <rect x="784" y="494" width="4" height="4"/>
    <rect x="784" y="498" width="4" height="4"/>
    <rect x="784" y="502" width="4" height="4"/>
    <rect x="784" y="506" width="4" height="4"/>
    <rect x="784" y="510" width="4" height="4"/>
    <rect x="788" y="514" width="4" height="4"/>
    <rect x="792" y="514" width="4" height="4"/>
    <rect x="796" y="514" width="4" height="4"/>
    <rect x="800" y="514" width="4" height="4"/>
    <rect x="812" y="490" width="4" height="4"/>
    <rect x="816" y="490" width="4" height="4"/>
    <rect x="820" y="490" width="4" height="4"/>
    <rect x="824" y="490" width="4" height="4"/>
    <rect x="828" y="490" width="4" height="4"/>
    <rect x="812" y="494" width="4" height="4"/>
    <rect x="812" y="498" width="4" height="4"/>
    <rect x="812" y="502" width="4" height="4"/>
    <rect x="816" y="502" width="4" height="4"/>
    <rect x="820" y="502" width="4" height="4"/>
    <rect x="824" y="502" width="4" height="4"/>
    <rect x="812" y="506" width="4" height="4"/>
    <rect x="812" y="510" width="4" height="4"/>
    <rect x="812" y="514" width="4" height="4"/>
    <rect x="816" y="514" width="4" height="4"/>
    <rect x="820" y="514" width="4" height="4"/>
    <rect x="824" y="514" width="4" height="4"/>
    <rect x="828" y="514" width="4" height="4"/>
    <rect x="848" y="510" width="4" height="4"/>
    <rect x="848" y="514" width="4" height="4"/>
    <rect x="892" y="490" width="4" height="4"/>
    <rect x="896" y="490" width="4" height="4"/>
    <rect x="900" y="490" width="4" height="4"/>
    <rect x="888" y="494" width="4" height="4"/>
    <rect x="904" y="494" width="4" height="4"/>
    <rect x="888" y="498" width="4" height="4"/>
    <rect x="904" y="498" width="4" height="4"/>
    <rect x="888" y="502" width="4" height="4"/>
    <rect x="892" y="502" width="4" height="4"/>
    <rect x="896" y="502" width="4" height="4"/>
    <rect x="900" y="502" width="4" height="4"/>
    <rect x="904" y="502" width="4" height="4"/>
    <rect x="888" y="506" width="4" height="4"/>
    <rect x="904" y="506" width="4" height="4"/>
    <rect x="888" y="510" width="4" height="4"/>
    <rect x="904" y="510" width="4" height="4"/>
    <rect x="888" y="514" width="4" height="4"/>
    <rect x="904" y="514" width="4" height="4"/>
    <rect x="916" y="490" width="4" height="4"/>
    <rect x="932" y="490" width="4" height="4"/>
    <rect x="916" y="494" width="4" height="4"/>
    <rect x="920" y="494" width="4" height="4"/>
    <rect x="932" y="494" width="4" height="4"/>
    <rect x="916" y="498" width="4" height="4"/>
    <rect x="924" y="498" width="4" height="4"/>
    <rect x="932" y="498" width="4" height="4"/>
    <rect x="916" y="502" width="4" height="4"/>
    <rect x="928" y="502" width="4" height="4"/>
    <rect x="932" y="502" width="4" height="4"/>
    <rect x="916" y="506" width="4" height="4"/>
    <rect x="932" y="506" width="4" height="4"/>
    <rect x="916" y="510" width="4" height="4"/>
    <rect x="932" y="510" width="4" height="4"/>
    <rect x="916" y="514" width="4" height="4"/>
    <rect x="932" y="514" width="4" height="4"/>
    <rect x="944" y="490" width="4" height="4"/>
    <rect x="960" y="490" width="4" height="4"/>
    <rect x="944" y="494" width="4" height="4"/>
    <rect x="960" y="494" width="4" height="4"/>
    <rect x="948" y="498" width="4" height="4"/>
    <rect x="956" y="498" width="4" height="4"/>
    <rect x="952" y="502" width="4" height="4"/>
    <rect x="952" y="506" width="4" height="4"/>
    <rect x="952" y="510" width="4" height="4"/>
    <rect x="952" y="514" width="4" height="4"/>
    <rect x="992" y="490" width="4" height="4"/>
    <rect x="1008" y="490" width="4" height="4"/>
    <rect x="992" y="494" width="4" height="4"/>
    <rect x="996" y="494" width="4" height="4"/>
    <rect x="1004" y="494" width="4" height="4"/>
    <rect x="1008" y="494" width="4" height="4"/>
    <rect x="992" y="498" width="4" height="4"/>
    <rect x="1000" y="498" width="4" height="4"/>
    <rect x="1008" y="498" width="4" height="4"/>
    <rect x="992" y="502" width="4" height="4"/>
    <rect x="1000" y="502" width="4" height="4"/>
    <rect x="1008" y="502" width="4" height="4"/>
    <rect x="992" y="506" width="4" height="4"/>
    <rect x="1008" y="506" width="4" height="4"/>
    <rect x="992" y="510" width="4" height="4"/>
    <rect x="1008" y="510" width="4" height="4"/>
    <rect x="992" y="514" width="4" height="4"/>
    <rect x="1008" y="514" width="4" height="4"/>
    <rect x="1024" y="490" width="4" height="4"/>
    <rect x="1028" y="490" width="4" height="4"/>
    <rect x="1032" y="490" width="4" height="4"/>
    <rect x="1020" y="494" width="4" height="4"/>
    <rect x="1036" y="494" width="4" height="4"/>
    <rect x="1020" y="498" width="4" height="4"/>
    <rect x="1036" y="498" width="4" height="4"/>
    <rect x="1020" y="502" width="4" height="4"/>
    <rect x="1036" y="502" width="4" height="4"/>
    <rect x="1020" y="506" width="4" height="4"/>
    <rect x="1036" y="506" width="4" height="4"/>
    <rect x="1020" y="510" width="4" height="4"/>
    <rect x="1036" y="510" width="4" height="4"/>
    <rect x="1024" y="514" width="4" height="4"/>
    <rect x="1028" y="514" width="4" height="4"/>
    <rect x="1032" y="514" width="4" height="4"/>
    <rect x="1048" y="490" width="4" height="4"/>
    <rect x="1052" y="490" width="4" height="4"/>
    <rect x="1056" y="490" width="4" height="4"/>
    <rect x="1060" y="490" width="4" height="4"/>
    <rect x="1048" y="494" width="4" height="4"/>
    <rect x="1064" y="494" width="4" height="4"/>
    <rect x="1048" y="498" width="4" height="4"/>
    <rect x="1064" y="498" width="4" height="4"/>
    <rect x="1048" y="502" width="4" height="4"/>
    <rect x="1064" y="502" width="4" height="4"/>
    <rect x="1048" y="506" width="4" height="4"/>
    <rect x="1064" y="506" width="4" height="4"/>
    <rect x="1048" y="510" width="4" height="4"/>
    <rect x="1064" y="510" width="4" height="4"/>
    <rect x="1048" y="514" width="4" height="4"/>
    <rect x="1052" y="514" width="4" height="4"/>
    <rect x="1056" y="514" width="4" height="4"/>
    <rect x="1060" y="514" width="4" height="4"/>
    <rect x="1076" y="490" width="4" height="4"/>
    <rect x="1080" y="490" width="4" height="4"/>
    <rect x="1084" y="490" width="4" height="4"/>
    <rect x="1088" y="490" width="4" height="4"/>
    <rect x="1092" y="490" width="4" height="4"/>
    <rect x="1076" y="494" width="4" height="4"/>
    <rect x="1076" y="498" width="4" height="4"/>
    <rect x="1076" y="502" width="4" height="4"/>
    <rect x="1080" y="502" width="4" height="4"/>
    <rect x="1084" y="502" width="4" height="4"/>
    <rect x="1088" y="502" width="4" height="4"/>
    <rect x="1076" y="506" width="4" height="4"/>
    <rect x="1076" y="510" width="4" height="4"/>
    <rect x="1076" y="514" width="4" height="4"/>
    <rect x="1080" y="514" width="4" height="4"/>
    <rect x="1084" y="514" width="4" height="4"/>
    <rect x="1088" y="514" width="4" height="4"/>
    <rect x="1092" y="514" width="4" height="4"/>
    <rect x="1104" y="490" width="4" height="4"/>
    <rect x="1104" y="494" width="4" height="4"/>
    <rect x="1104" y="498" width="4" height="4"/>
    <rect x="1104" y="502" width="4" height="4"/>
    <rect x="1104" y="506" width="4" height="4"/>
    <rect x="1104" y="510" width="4" height="4"/>
    <rect x="1104" y="514" width="4" height="4"/>
    <rect x="1108" y="514" width="4" height="4"/>
    <rect x="1112" y="514" width="4" height="4"/>
    <rect x="1116" y="514" width="4" height="4"/>
    <rect x="1120" y="514" width="4" height="4"/>
    <rect x="1140" y="510" width="4" height="4"/>
    <rect x="1140" y="514" width="4" height="4"/>
  </g>
</svg>
